<svg width="46" height="46" viewBox="0 0 46 46" fill="none" xmlns="http://www.w3.org/2000/svg">
    <path
        d="M35.6921 15.5792H9.39268C6.27431 15.5792 3.75708 18.0964 3.75708 21.2148V32.486H11.2712V40.0001H33.8136V32.486H41.3277V21.2148C41.3277 18.0964 38.8105 15.5792 35.6921 15.5792ZM30.0565 36.243H15.0283V26.8504H30.0565V36.243ZM35.6921 23.0933C34.6589 23.0933 33.8136 22.248 33.8136 21.2148C33.8136 20.1816 34.6589 19.3362 35.6921 19.3362C36.7253 19.3362 37.5707 20.1816 37.5707 21.2148C37.5707 22.248 36.7253 23.0933 35.6921 23.0933ZM33.8136 6.18652H11.2712V13.7006H33.8136V6.18652Z"
        fill="currentColor" />
</svg>