<svg width="46" height="46" viewBox="0 0 46 46" fill="none" xmlns="http://www.w3.org/2000/svg">
    <path
        d="M33.8135 31.0459C32.3858 31.0459 31.1084 31.6095 30.1316 32.4924L16.7377 24.6965C16.8316 24.2644 16.9067 23.8323 16.9067 23.3815C16.9067 22.9307 16.8316 22.4986 16.7377 22.0665L29.9813 14.3458C30.9957 15.285 32.3295 15.8674 33.8135 15.8674C36.9319 15.8674 39.4491 13.3501 39.4491 10.2318C39.4491 7.11342 36.9319 4.59619 33.8135 4.59619C30.6952 4.59619 28.1779 7.11342 28.1779 10.2318C28.1779 10.6826 28.2531 11.1147 28.347 11.5468L15.1034 19.2675C14.0889 18.3283 12.7552 17.7459 11.2712 17.7459C8.15279 17.7459 5.63556 20.2631 5.63556 23.3815C5.63556 26.4999 8.15279 29.0171 11.2712 29.0171C12.7552 29.0171 14.0889 28.4347 15.1034 27.4955L28.4785 35.3102C28.3846 35.7047 28.3282 36.1179 28.3282 36.5312C28.3282 39.5557 30.7891 42.0165 33.8135 42.0165C36.838 42.0165 39.2988 39.5557 39.2988 36.5312C39.2988 33.5068 36.838 31.0459 33.8135 31.0459Z"
        fill="currentColor" />
</svg>